<svg xmlns="http://www.w3.org/2000/svg" viewBox="0 0 64 64">
  <!-- Háttér -->
  <defs>
    <linearGradient id="bgGradient" x1="0%" y1="0%" x2="100%" y2="100%">
      <stop offset="0%" stop-color="#3a86ff" />
      <stop offset="50%" stop-color="#8338ec" />
      <stop offset="100%" stop-color="#ff006e" />
    </linearGradient>
    
    <filter id="glow" x="-20%" y="-20%" width="140%" height="140%">
      <feGaussianBlur stdDeviation="2" result="blur" />
      <feComposite in="SourceGraphic" in2="blur" operator="over" />
    </filter>
  </defs>

  <!-- Alap forma -->
  <rect width="64" height="64" rx="14" fill="url(#bgGradient)" />

  <!-- "B" betű stilizálva -->
  <path d="M20 16 L20 48 L32 48 C40 48 44 44 44 38 C44 34 41 30 36 29 C40 28 42 25 42 21 C42 16 38 16 32 16 Z" 
        fill="#0d1b2a" stroke="#f8f9fa" stroke-width="1.5" filter="url(#glow)" />
  
  <!-- Belső formák a "B" betűhöz -->
  <path d="M26 22 L32 22 C35 22 36 23 36 25 C36 27 35 28 32 28 L26 28 Z" fill="#f8f9fa" />
  <path d="M26 34 L32 34 C36 34 38 35 38 38 C38 41 36 42 32 42 L26 42 Z" fill="#f8f9fa" />
  
  <!-- Dekoratív elem -->
  <circle cx="48" cy="16" r="4" fill="#ff006e" opacity="0.7" />
</svg>
